<?xml version="1.0" standalone="no"?><!DOCTYPE svg PUBLIC "-//W3C//DTD SVG 1.1//EN" "http://www.w3.org/Graphics/SVG/1.1/DTD/svg11.dtd"><svg t="1529575501239" class="icon" style="" viewBox="0 0 1024 1024" version="1.1" xmlns="http://www.w3.org/2000/svg" p-id="2682" xmlns:xlink="http://www.w3.org/1999/xlink" width="200" height="200"><defs><style type="text/css"></style></defs><path d="M510.432 57.568c118.88 0 220.992 110.4 220.992 254.912 0 101.92-136.096 314.176-220.992 424.672-84.896-110.496-220.96-322.784-220.96-424.672-0.032-144.512 102.048-254.912 220.96-254.912z m0-42.432c-144.512 0-263.392 135.936-263.392 297.344 0 161.536 263.392 492.704 263.392 492.704s263.424-331.36 263.424-492.704c0-161.44-119.296-297.344-263.424-297.344m478.752 977.024H34.784c-17.184 0-34.016-17.184-34.016-34.016v-509.76c0-17.024 16.832-34.016 34.016-34.016H170.56c16.992 0 34.016 16.992 34.016 34.016s-17.024 34.016-34.016 34.016H60.064v450.112h895.296V482.432h-102.048c-17.024 0-33.856-17.024-33.856-34.016s16.8-34.016 33.856-34.016h135.904c17.024 0 34.016 16.992 34.016 34.016v509.728c0 16.832-17.216 34.016-34.048 34.016" p-id="2683"></path><path d="M510.432 127.36a151.04 151.04 0 0 0-151.168 151.104 150.88 150.88 0 0 0 151.168 150.816 151.264 151.264 0 0 0 150.816-150.816c0-83.136-67.872-151.104-150.816-151.104z m0 261.248a110.752 110.752 0 0 1-111.2-111.008 110.72 110.72 0 0 1 111.2-111.008 110.656 110.656 0 0 1 110.848 111.008 111.136 111.136 0 0 1-110.848 111.008z" p-id="2684"></path></svg>