<?xml version="1.0" standalone="no"?><!DOCTYPE svg PUBLIC "-//W3C//DTD SVG 1.1//EN" "http://www.w3.org/Graphics/SVG/1.1/DTD/svg11.dtd"><svg t="1530549334122" class="icon" style="" viewBox="0 0 1024 1024" version="1.1" xmlns="http://www.w3.org/2000/svg" p-id="2611" xmlns:xlink="http://www.w3.org/1999/xlink" width="200" height="200"><defs><style type="text/css"></style></defs><path d="M929.6 641.8h-19.5V255.6c0-15.5-12.5-28-28-28h-93.4v-22.7c0-10.3-8.4-18.7-18.7-18.7-10.3 0-18.7 8.4-18.7 18.7v22.7H268.8v-22.7c0-10.3-8.4-18.7-18.7-18.7-10.3 0-18.7 8.4-18.7 18.7v22.7H138c-15.5 0-28 12.5-28 28v386.2H90.5c-15.5 0-28 12.5-28 28s12.5 28 28 28h839.1c15.5 0 28-12.5 28-28s-12.5-28-28-28z m-763.6 0V362.2h522.4c10.3 0 18.7-8.4 18.7-18.7 0-10.3-8.4-18.7-18.7-18.7H166v-41.3h688.1v41.3H791c-10.3 0-18.7 8.4-18.7 18.7 0 10.3 8.4 18.7 18.7 18.7h63.1v279.5H166zM220.4 157.9h59.5c10.3 0 18.7-8.4 18.7-18.7 0-10.3-8.4-18.7-18.7-18.7h-59.5c-10.3 0-18.7 8.4-18.7 18.7 0 10.4 8.4 18.7 18.7 18.7zM740.3 157.9h59.5c10.3 0 18.7-8.4 18.7-18.7 0-10.3-8.4-18.7-18.7-18.7h-59.5c-10.3 0-18.7 8.4-18.7 18.7 0.1 10.4 8.4 18.7 18.7 18.7zM590.6 847.1h-52.5v-74.3c0-15.5-12.5-28-28-28s-28 12.5-28 28v74.3h-52.5c-15.5 0-28 12.5-28 28s12.5 28 28 28h161c15.5 0 28-12.5 28-28s-12.5-28-28-28z" fill="#4F4F4F" p-id="2612"></path></svg>