<?xml version="1.0" standalone="no"?><!DOCTYPE svg PUBLIC "-//W3C//DTD SVG 1.1//EN" "http://www.w3.org/Graphics/SVG/1.1/DTD/svg11.dtd"><svg t="1534493206542" class="icon" style="" viewBox="0 0 1024 1024" version="1.1" xmlns="http://www.w3.org/2000/svg" p-id="4406" xmlns:xlink="http://www.w3.org/1999/xlink" width="200" height="200"><defs><style type="text/css"></style></defs><path d="M560.88 658.8h69.68v15.44h-69.68z" p-id="4407" fill="#ffffff"></path><path d="M698.24 451.44V200h-46.56v251.44H372.32V200h-46.56v251.44H186V824h651.92V451.44zM505.12 600H396.16v90.72L352 700.08v-33.92l8-2.4V575.2h54.24l-1.84-8.8h45.84l1.68 8.8h44.88z m162.72 96.48H524.4v-60h143.44z m5.36-64.48H518.88v-23.36h61.12v-11.28h-22.16l-2.88 8.48H520V582.4h8.72l5.52-13.76H568l-2.32 6.64h14.32v-8h38.64v8h49.04v22h-49.04v11.36h54.56z" p-id="4408" fill="#ffffff"></path></svg>