<?xml version="1.0" standalone="no"?><!DOCTYPE svg PUBLIC "-//W3C//DTD SVG 1.1//EN" "http://www.w3.org/Graphics/SVG/1.1/DTD/svg11.dtd"><svg t="1529663454385" class="icon" style="" viewBox="0 0 1024 1024" version="1.1" xmlns="http://www.w3.org/2000/svg" p-id="3282" xmlns:xlink="http://www.w3.org/1999/xlink" width="200" height="200"><defs><style type="text/css"></style></defs><path d="M646.25152 600.92928a137.67168 137.67168 0 0 0-13.16352-31.56992c6.3744-8.6272 28.42624-40.77568 12.53376-56.6528l-8.1408-8.59648c-13.56288-13.57824-48.24064 7.61856-56.66304 13.11232a136.9856 136.9856 0 0 0-31.9744-13.18912c-1.81248-10.7776-9.71776-48.4352-32.05632-48.4352h-8.94464c-19.18976 0-30.19264 38.9376-32.63488 48.70656a137.20064 137.20064 0 0 0-31.53408 13.2352c-7.75168-5.76-40.96512-28.71808-57.17504-12.51328l-8.61696 7.23968c-14.11584 14.13632 9.34912 51.39456 13.65504 57.92256a137.9072 137.9072 0 0 0-12.80512 31.02208c-9.36448 1.47968-49.34656 9.20064-49.34656 32.22016v8.9344c0 19.9424 41.94816 31.01696 49.6128 32.86528a137.24672 137.24672 0 0 0 12.83584 30.78144c-4.50048 7.06048-27.07456 44.16-13.07648 58.17344l8.15616 6.77376c18.42688 18.41152 56.91904-11.84256 56.91904-11.84256l-1.792-1.90976a137.50272 137.50272 0 0 0 32.9472 14.10048c1.92 7.8592 12.98432 49.5104 32.8448 49.5104h8.94464c26.0608 0 32.51712-48.64 32.51712-48.64l-2.39104-0.0512a137.44128 137.44128 0 0 0 33.38752-13.37856c8.15616 5.40672 42.25024 26.76224 55.84384 13.14304l9.0624-9.05728c18.176-18.17088-11.38688-55.34208-12.2112-56.38144a137.52832 137.52832 0 0 0 13.2096-31.52896c10.16832-2.5856 48.4096-13.54752 48.4096-32.5632v-8.9344c0.00512-25.23648-45.51168-32.06656-48.35328-32.49664z m-134.1952 111.23712c-40.832 0-73.91744-33.0752-73.91744-73.90208s33.08032-73.91232 73.91744-73.91232c40.80128 0 73.8816 33.08544 73.8816 73.91232s-33.08032 73.90208-73.8816 73.90208zM806.84032 188.2112v-48.15872c0-47.42144-29.93664-75.74528-80.06144-75.74528-50.08896 0-80.0256 28.32384-80.0256 75.74528v48.15872h-54.23616v-48.15872c0-47.42144-29.91104-75.74528-80.03072-75.74528s-80.0256 28.32384-80.0256 75.74528v48.15872H378.19904v-48.15872c0-47.42144-29.90592-75.74528-80.0256-75.74528-50.09408 0-80.0256 28.32384-80.0256 75.74528v48.15872H126.24896v771.48672h771.50208V188.2112h-90.91072z m-117.21216-48.15872c0-23.3984 10.73152-32.88576 37.15072-32.88576 26.48064 0 37.18144 9.48736 37.18144 32.88576v128.82944c0 23.38816-10.7008 32.88576-37.18144 32.88576-26.41408 0-37.15072-9.49248-37.15072-32.88576V140.05248z m-214.28736 0c0-23.3984 10.70592-32.88576 37.15072-32.88576 26.44992 0 37.18144 9.48736 37.18144 32.88576v128.82944c0 23.38816-10.73152 32.88576-37.18144 32.88576-26.4448 0-37.15072-9.49248-37.15072-32.88576V140.05248z m-214.3488 0c0-23.3984 10.73664-32.88576 37.18144-32.88576 26.44992 0 37.21216 9.48736 37.21216 32.88576v128.82944c0 23.38816-10.76736 32.88576-37.21216 32.88576-26.4448 0-37.18144-9.49248-37.18144-32.88576V140.05248z m572.47232 755.36896H190.53568V359.65952h642.92864v535.76192z" fill="" p-id="3283"></path></svg>