<?xml version="1.0" standalone="no"?><!DOCTYPE svg PUBLIC "-//W3C//DTD SVG 1.1//EN" "http://www.w3.org/Graphics/SVG/1.1/DTD/svg11.dtd"><svg t="1529429356998" class="icon" style="" viewBox="0 0 1024 1024" version="1.1" xmlns="http://www.w3.org/2000/svg" p-id="5375" xmlns:xlink="http://www.w3.org/1999/xlink" width="200" height="200"><defs><style type="text/css"></style></defs><path d="M315.904 340.48c20.992 63.488 79.36 63.488 99.84 0 6.656-3.584 13.824-14.336 14.848-23.04 1.024-9.216 0.512-21.504-8.704-21.504-2.048-29.696-18.432-54.784-55.296-54.784-36.352 0-54.784 22.016-56.832 54.784-9.216 0-10.24 12.288-8.704 21.504 1.024 8.704 8.192 19.456 14.848 23.04z" p-id="5376"></path><path d="M450.56 683.008c24.064 0 44.032-19.968 44.032-44.032v-1.536L665.6 466.432c4.608-4.608 4.608-12.288 0-16.896-4.608-4.608-12.288-4.608-16.896 0l-154.624 154.112V458.24c0-31.744-23.04-58.88-55.296-66.048l-23.552-5.12c-20.48 40.448-78.336 40.448-98.304 0l-23.552 5.12c-32.256 6.656-55.296 34.304-55.296 66.048v180.736c0 24.064 19.456 44.032 44.032 44.032 0 12.288 9.728 22.016 22.016 22.016h124.416c12.288 0 22.016-10.24 22.016-22.016z" p-id="5377"></path><path d="M171.52 664.576c18.944 8.192 40.448-5.12 40.448-26.112 0-9.216-5.632-16.896-14.336-19.968-27.136-9.728-47.104-35.328-47.104-66.048V220.16c0-38.912 31.232-70.144 70.144-70.144h583.68c38.912 0 70.144 31.232 70.144 70.144v332.288c0 38.912-31.232 70.144-70.144 70.144h-232.448c-14.336 0-26.112 11.776-26.112 26.112s11.776 26.112 26.112 26.112h232.96c67.584 0 122.368-54.784 122.368-122.368V220.16c0-67.584-54.784-122.368-122.368-122.368h-583.68C153.6 97.792 98.816 152.576 98.816 220.16v332.288c-0.512 50.176 29.696 93.184 72.704 112.128zM269.824 747.52H178.176c-44.032 0-79.872 35.84-79.872 79.872v105.472h251.392v-105.472c0-44.032-35.84-79.872-79.872-79.872zM559.616 747.52H468.48c-44.032 0-79.872 35.84-79.872 79.872v105.472H640v-105.472c-0.512-44.032-36.352-79.872-80.384-79.872zM849.408 747.52h-91.136c-44.032 0-79.872 35.84-79.872 79.872v105.472h251.392v-105.472c0-44.032-35.84-79.872-80.384-79.872z" p-id="5378"></path></svg>