<?xml version="1.0" standalone="no"?><!DOCTYPE svg PUBLIC "-//W3C//DTD SVG 1.1//EN" "http://www.w3.org/Graphics/SVG/1.1/DTD/svg11.dtd"><svg t="1534492833901" class="icon" style="" viewBox="0 0 1024 1024" version="1.1" xmlns="http://www.w3.org/2000/svg" p-id="2754" xmlns:xlink="http://www.w3.org/1999/xlink" width="200" height="200"><defs><style type="text/css"></style></defs><path d="M979.84 964.48h-908.8c-4.48 0-7.68-3.2-7.68-7.68s3.2-7.68 7.68-7.68h908.8c4.48 0 7.68 3.2 7.68 7.68s-3.2 7.68-7.68 7.68zM563.2 926.72H487.68c-4.48 0-7.68-3.2-7.68-7.68V634.24c0-4.48 3.2-7.68 7.68-7.68H563.2c4.48 0 7.68 3.2 7.68 7.68v284.8c0 4.48-3.2 7.68-7.68 7.68z m-67.84-15.36h60.8v-269.44h-60.8v269.44z" fill="#ffffff" p-id="2755"></path><path d="M601.6 964.48H449.92c-4.48 0-7.68-3.2-7.68-7.68v-37.76c0-4.48 3.2-7.68 7.68-7.68H601.6c4.48 0 7.68 3.2 7.68 7.68v37.76c-0.64 4.48-3.84 7.68-7.68 7.68z m-144-14.72h136.32v-23.04H457.6v23.04zM938.88 641.92H112c-26.88 0-48.64-21.76-48.64-48.64V91.52c0-26.88 21.76-48.64 48.64-48.64h826.88c26.88 0 48.64 21.76 48.64 48.64v501.76c0 26.88-21.76 48.64-48.64 48.64zM112 58.24c-18.56 0-33.28 14.72-33.28 33.28v501.76c0 18.56 14.72 33.28 33.28 33.28h826.88c18.56 0 33.28-14.72 33.28-33.28V91.52c0-18.56-14.72-33.28-33.28-33.28H112z" fill="#ffffff" p-id="2756"></path><path d="M942.08 604.16H108.8c-4.48 0-7.68-3.2-7.68-7.68V88.96c0-4.48 3.2-7.68 7.68-7.68h833.28c4.48 0 7.68 3.2 7.68 7.68v508.16c0 3.84-3.2 7.04-7.68 7.04zM116.48 588.8H934.4V96H116.48v492.8z" fill="#ffffff" p-id="2757"></path><path d="M148.48 133.76H147.2c-4.48 0-7.68-3.2-7.68-7.68s3.2-7.68 7.68-7.68h1.28c4.48 0 7.68 3.2 7.68 7.68s-3.84 7.68-7.68 7.68zM872.96 133.76h-3.2c-4.48 0-7.68-3.2-7.68-7.68s3.2-7.68 7.68-7.68h3.2c4.48 0 7.68 3.2 7.68 7.68s-3.84 7.68-7.68 7.68z m-33.28 0h-3.2c-4.48 0-7.68-3.2-7.68-7.68s3.2-7.68 7.68-7.68h3.2c4.48 0 7.68 3.2 7.68 7.68s-3.2 7.68-7.68 7.68z m-32.64 0h-3.2c-4.48 0-7.68-3.2-7.68-7.68s3.2-7.68 7.68-7.68h3.2c4.48 0 7.68 3.2 7.68 7.68s-3.2 7.68-7.68 7.68z m-32.64 0h-3.2c-4.48 0-7.68-3.2-7.68-7.68s3.2-7.68 7.68-7.68h3.2c4.48 0 7.68 3.2 7.68 7.68-0.64 4.48-3.84 7.68-7.68 7.68z m-33.28 0h-3.2c-4.48 0-7.68-3.2-7.68-7.68s3.2-7.68 7.68-7.68h3.2c4.48 0 7.68 3.2 7.68 7.68s-3.2 7.68-7.68 7.68z m-32.64 0h-3.2c-4.48 0-7.68-3.2-7.68-7.68s3.2-7.68 7.68-7.68h3.2c4.48 0 7.68 3.2 7.68 7.68-0.64 4.48-3.84 7.68-7.68 7.68z m-33.28 0h-3.2c-4.48 0-7.68-3.2-7.68-7.68s3.2-7.68 7.68-7.68h3.2c4.48 0 7.68 3.2 7.68 7.68s-3.2 7.68-7.68 7.68z m-32.64 0h-3.2c-4.48 0-7.68-3.2-7.68-7.68s3.2-7.68 7.68-7.68h3.2c4.48 0 7.68 3.2 7.68 7.68s-3.84 7.68-7.68 7.68z m-33.28 0h-3.2c-4.48 0-7.68-3.2-7.68-7.68s3.2-7.68 7.68-7.68h3.2c4.48 0 7.68 3.2 7.68 7.68s-3.2 7.68-7.68 7.68z m-32.64 0h-3.2c-4.48 0-7.68-3.2-7.68-7.68s3.2-7.68 7.68-7.68h3.2c4.48 0 7.68 3.2 7.68 7.68s-3.84 7.68-7.68 7.68z m-33.28 0h-3.2c-4.48 0-7.68-3.2-7.68-7.68s3.2-7.68 7.68-7.68h3.2c4.48 0 7.68 3.2 7.68 7.68s-3.2 7.68-7.68 7.68z m-32.64 0h-3.2c-4.48 0-7.68-3.2-7.68-7.68s3.2-7.68 7.68-7.68h3.2c4.48 0 7.68 3.2 7.68 7.68s-3.84 7.68-7.68 7.68z m-33.28 0h-3.2c-4.48 0-7.68-3.2-7.68-7.68s3.2-7.68 7.68-7.68h3.2c4.48 0 7.68 3.2 7.68 7.68s-3.2 7.68-7.68 7.68z m-32.64 0H441.6c-4.48 0-7.68-3.2-7.68-7.68s3.2-7.68 7.68-7.68h3.2c4.48 0 7.68 3.2 7.68 7.68s-3.2 7.68-7.68 7.68z m-32.64 0h-3.2c-4.48 0-7.68-3.2-7.68-7.68s3.2-7.68 7.68-7.68h3.2c4.48 0 7.68 3.2 7.68 7.68-0.64 4.48-3.84 7.68-7.68 7.68z m-33.28 0h-3.2c-4.48 0-7.68-3.2-7.68-7.68s3.2-7.68 7.68-7.68h3.2c4.48 0 7.68 3.2 7.68 7.68s-3.2 7.68-7.68 7.68z m-32.64 0h-3.2c-4.48 0-7.68-3.2-7.68-7.68s3.2-7.68 7.68-7.68h3.2c4.48 0 7.68 3.2 7.68 7.68-0.64 4.48-3.84 7.68-7.68 7.68z m-33.28 0h-3.2c-4.48 0-7.68-3.2-7.68-7.68s3.2-7.68 7.68-7.68h3.2c4.48 0 7.68 3.2 7.68 7.68s-3.2 7.68-7.68 7.68z m-32.64 0h-3.2c-4.48 0-7.68-3.2-7.68-7.68s3.2-7.68 7.68-7.68h3.2c4.48 0 7.68 3.2 7.68 7.68s-3.84 7.68-7.68 7.68z m-33.28 0h-3.2c-4.48 0-7.68-3.2-7.68-7.68s3.2-7.68 7.68-7.68h3.2c4.48 0 7.68 3.2 7.68 7.68s-3.2 7.68-7.68 7.68z m-32.64 0H211.2c-4.48 0-7.68-3.2-7.68-7.68s3.2-7.68 7.68-7.68h3.2c4.48 0 7.68 3.2 7.68 7.68s-3.84 7.68-7.68 7.68z m-33.28 0h-3.2c-4.48 0-7.68-3.2-7.68-7.68s3.2-7.68 7.68-7.68h3.2c4.48 0 7.68 3.2 7.68 7.68s-3.2 7.68-7.68 7.68zM904.32 133.76h-1.28c-4.48 0-7.68-3.2-7.68-7.68s3.2-7.68 7.68-7.68h1.28c4.48 0 7.68 3.2 7.68 7.68s-3.2 7.68-7.68 7.68zM148.48 229.76H147.2c-4.48 0-7.68-3.2-7.68-7.68s3.2-7.68 7.68-7.68h1.28c4.48 0 7.68 3.2 7.68 7.68s-3.84 7.68-7.68 7.68zM904.32 229.76h-1.28c-4.48 0-7.68-3.2-7.68-7.68s3.2-7.68 7.68-7.68h1.28c4.48 0 7.68 3.2 7.68 7.68s-3.2 7.68-7.68 7.68zM148.48 326.4H147.2c-4.48 0-7.68-3.2-7.68-7.68s3.2-7.68 7.68-7.68h1.28c4.48 0 7.68 3.2 7.68 7.68 0 3.84-3.84 7.68-7.68 7.68zM904.32 326.4h-1.28c-4.48 0-7.68-3.2-7.68-7.68s3.2-7.68 7.68-7.68h1.28c4.48 0 7.68 3.2 7.68 7.68 0 3.84-3.2 7.68-7.68 7.68zM148.48 181.76H147.2c-4.48 0-7.68-3.2-7.68-7.68S142.72 166.4 147.2 166.4h1.28c4.48 0 7.68 3.2 7.68 7.68s-3.84 7.68-7.68 7.68zM904.32 181.76h-1.28c-4.48 0-7.68-3.2-7.68-7.68s3.2-7.68 7.68-7.68h1.28c4.48 0 7.68 3.2 7.68 7.68s-3.2 7.68-7.68 7.68zM148.48 277.76H147.2c-4.48 0-7.68-3.2-7.68-7.68S142.72 262.4 147.2 262.4h1.28c4.48 0 7.68 3.2 7.68 7.68s-3.84 7.68-7.68 7.68zM904.32 277.76h-1.28c-4.48 0-7.68-3.2-7.68-7.68s3.2-7.68 7.68-7.68h1.28c4.48 0 7.68 3.2 7.68 7.68s-3.2 7.68-7.68 7.68zM148.48 422.4H147.2c-4.48 0-7.68-3.2-7.68-7.68s3.2-7.68 7.68-7.68h1.28c4.48 0 7.68 3.2 7.68 7.68s-3.84 7.68-7.68 7.68zM904.32 422.4h-1.28c-4.48 0-7.68-3.2-7.68-7.68s3.2-7.68 7.68-7.68h1.28c4.48 0 7.68 3.2 7.68 7.68s-3.2 7.68-7.68 7.68zM148.48 567.04H147.2c-4.48 0-7.68-3.2-7.68-7.68s3.2-7.68 7.68-7.68h1.28c4.48 0 7.68 3.2 7.68 7.68 0 3.84-3.84 7.68-7.68 7.68zM872.96 567.04h-3.2c-4.48 0-7.68-3.2-7.68-7.68s3.2-7.68 7.68-7.68h3.2c4.48 0 7.68 3.2 7.68 7.68 0 3.84-3.84 7.68-7.68 7.68z m-33.28 0h-3.2c-4.48 0-7.68-3.2-7.68-7.68s3.2-7.68 7.68-7.68h3.2c4.48 0 7.68 3.2 7.68 7.68 0 3.84-3.2 7.68-7.68 7.68z m-32.64 0h-3.2c-4.48 0-7.68-3.2-7.68-7.68s3.2-7.68 7.68-7.68h3.2c4.48 0 7.68 3.2 7.68 7.68 0 3.84-3.2 7.68-7.68 7.68z m-32.64 0h-3.2c-4.48 0-7.68-3.2-7.68-7.68s3.2-7.68 7.68-7.68h3.2c4.48 0 7.68 3.2 7.68 7.68-0.64 3.84-3.84 7.68-7.68 7.68z m-33.28 0h-3.2c-4.48 0-7.68-3.2-7.68-7.68s3.2-7.68 7.68-7.68h3.2c4.48 0 7.68 3.2 7.68 7.68 0 3.84-3.2 7.68-7.68 7.68z m-32.64 0h-3.2c-4.48 0-7.68-3.2-7.68-7.68s3.2-7.68 7.68-7.68h3.2c4.48 0 7.68 3.2 7.68 7.68-0.64 3.84-3.84 7.68-7.68 7.68z m-33.28 0h-3.2c-4.48 0-7.68-3.2-7.68-7.68s3.2-7.68 7.68-7.68h3.2c4.48 0 7.68 3.2 7.68 7.68 0 3.84-3.2 7.68-7.68 7.68z m-32.64 0h-3.2c-4.48 0-7.68-3.2-7.68-7.68s3.2-7.68 7.68-7.68h3.2c4.48 0 7.68 3.2 7.68 7.68 0 3.84-3.84 7.68-7.68 7.68z m-33.28 0h-3.2c-4.48 0-7.68-3.2-7.68-7.68s3.2-7.68 7.68-7.68h3.2c4.48 0 7.68 3.2 7.68 7.68 0 3.84-3.2 7.68-7.68 7.68z m-32.64 0h-3.2c-4.48 0-7.68-3.2-7.68-7.68s3.2-7.68 7.68-7.68h3.2c4.48 0 7.68 3.2 7.68 7.68 0 3.84-3.84 7.68-7.68 7.68z m-33.28 0h-3.2c-4.48 0-7.68-3.2-7.68-7.68s3.2-7.68 7.68-7.68h3.2c4.48 0 7.68 3.2 7.68 7.68 0 3.84-3.2 7.68-7.68 7.68z m-32.64 0h-3.2c-4.48 0-7.68-3.2-7.68-7.68s3.2-7.68 7.68-7.68h3.2c4.48 0 7.68 3.2 7.68 7.68 0 3.84-3.84 7.68-7.68 7.68z m-33.28 0h-3.2c-4.48 0-7.68-3.2-7.68-7.68s3.2-7.68 7.68-7.68h3.2c4.48 0 7.68 3.2 7.68 7.68 0 3.84-3.2 7.68-7.68 7.68z m-32.64 0H441.6c-4.48 0-7.68-3.2-7.68-7.68s3.2-7.68 7.68-7.68h3.2c4.48 0 7.68 3.2 7.68 7.68 0 3.84-3.2 7.68-7.68 7.68z m-32.64 0h-3.2c-4.48 0-7.68-3.2-7.68-7.68s3.2-7.68 7.68-7.68h3.2c4.48 0 7.68 3.2 7.68 7.68-0.64 3.84-3.84 7.68-7.68 7.68z m-33.28 0h-3.2c-4.48 0-7.68-3.2-7.68-7.68s3.2-7.68 7.68-7.68h3.2c4.48 0 7.68 3.2 7.68 7.68 0 3.84-3.2 7.68-7.68 7.68z m-32.64 0h-3.2c-4.48 0-7.68-3.2-7.68-7.68s3.2-7.68 7.68-7.68h3.2c4.48 0 7.68 3.2 7.68 7.68-0.64 3.84-3.84 7.68-7.68 7.68z m-33.28 0h-3.2c-4.48 0-7.68-3.2-7.68-7.68s3.2-7.68 7.68-7.68h3.2c4.48 0 7.68 3.2 7.68 7.68 0 3.84-3.2 7.68-7.68 7.68z m-32.64 0h-3.2c-4.48 0-7.68-3.2-7.68-7.68s3.2-7.68 7.68-7.68h3.2c4.48 0 7.68 3.2 7.68 7.68 0 3.84-3.84 7.68-7.68 7.68z m-33.28 0h-3.2c-4.48 0-7.68-3.2-7.68-7.68s3.2-7.68 7.68-7.68h3.2c4.48 0 7.68 3.2 7.68 7.68 0 3.84-3.2 7.68-7.68 7.68z m-32.64 0H211.2c-4.48 0-7.68-3.2-7.68-7.68s3.2-7.68 7.68-7.68h3.2c4.48 0 7.68 3.2 7.68 7.68 0 3.84-3.84 7.68-7.68 7.68z m-33.28 0h-3.2c-4.48 0-7.68-3.2-7.68-7.68s3.2-7.68 7.68-7.68h3.2c4.48 0 7.68 3.2 7.68 7.68 0 3.84-3.2 7.68-7.68 7.68zM904.32 567.04h-1.28c-4.48 0-7.68-3.2-7.68-7.68s3.2-7.68 7.68-7.68h1.28c4.48 0 7.68 3.2 7.68 7.68 0 3.84-3.2 7.68-7.68 7.68zM148.48 518.4H147.2c-4.48 0-7.68-3.2-7.68-7.68s3.2-7.68 7.68-7.68h1.28c4.48 0 7.68 3.2 7.68 7.68s-3.84 7.68-7.68 7.68zM904.32 518.4h-1.28c-4.48 0-7.68-3.2-7.68-7.68s3.2-7.68 7.68-7.68h1.28c4.48 0 7.68 3.2 7.68 7.68s-3.2 7.68-7.68 7.68zM148.48 374.4H147.2c-4.48 0-7.68-3.2-7.68-7.68s3.2-7.68 7.68-7.68h1.28c4.48 0 7.68 3.2 7.68 7.68 0 3.84-3.84 7.68-7.68 7.68zM904.32 374.4h-1.28c-4.48 0-7.68-3.2-7.68-7.68s3.2-7.68 7.68-7.68h1.28c4.48 0 7.68 3.2 7.68 7.68 0 3.84-3.2 7.68-7.68 7.68zM148.48 470.4H147.2c-4.48 0-7.68-3.2-7.68-7.68s3.2-7.68 7.68-7.68h1.28c4.48 0 7.68 3.2 7.68 7.68s-3.84 7.68-7.68 7.68z" fill="#ffffff" p-id="2758"></path><path d="M773.12 256.64c-4.48 0-8.32-3.84-8.32-8.32 0-4.48 3.84-8.32 8.32-8.32h2.56c4.48 0 8.32 3.84 8.32 8.32 0 4.48-3.84 8.32-8.32 8.32h-2.56z m-28.8 0c-4.48 0-8.32-3.84-8.32-8.32 0-4.48 3.84-8.32 8.32-8.32h2.56c4.48 0 8.32 3.84 8.32 8.32 0 4.48-3.84 8.32-8.32 8.32h-2.56z m-29.44 0c-4.48 0-8.32-3.84-8.32-8.32 0-4.48 3.84-8.32 8.32-8.32h2.56c4.48 0 8.32 3.84 8.32 8.32 0 4.48-3.84 8.32-8.32 8.32h-2.56z m-29.44 0c-4.48 0-8.32-3.84-8.32-8.32 0-4.48 3.84-8.32 8.32-8.32h2.56c4.48 0 8.32 3.84 8.32 8.32 0 4.48-3.84 8.32-8.32 8.32h-2.56z m-29.44 0c-4.48 0-8.32-3.84-8.32-8.32 0-4.48 3.84-8.32 8.32-8.32h2.56c4.48 0 8.32 3.84 8.32 8.32 0 4.48-3.84 8.32-8.32 8.32h-2.56z m-58.24 0c-4.48 0-8.32-3.84-8.32-8.32 0-4.48 3.84-8.32 8.32-8.32h2.56c4.48 0 8.32 3.84 8.32 8.32 0 4.48-3.84 8.32-8.32 8.32h-2.56z m-29.44 0c-4.48 0-8.32-3.84-8.32-8.32 0-4.48 3.84-8.32 8.32-8.32h2.56c4.48 0 8.32 3.84 8.32 8.32 0 4.48-3.84 8.32-8.32 8.32h-2.56z m-29.44 0c-4.48 0-8.32-3.84-8.32-8.32 0-4.48 3.84-8.32 8.32-8.32h2.56c4.48 0 8.32 3.84 8.32 8.32 0 4.48-3.84 8.32-8.32 8.32h-2.56z m-29.44 0c-4.48 0-8.32-3.84-8.32-8.32 0-4.48 3.84-8.32 8.32-8.32h2.56c4.48 0 8.32 3.84 8.32 8.32 0 4.48-3.84 8.32-8.32 8.32h-2.56z m-28.8 0c-4.48 0-8.32-3.84-8.32-8.32 0-4.48 3.84-8.32 8.32-8.32h2.56c4.48 0 8.32 3.84 8.32 8.32 0 4.48-3.84 8.32-8.32 8.32h-2.56z m-29.44 0c-4.48 0-8.32-3.84-8.32-8.32 0-4.48 3.84-8.32 8.32-8.32h2.56c4.48 0 8.32 3.84 8.32 8.32 0 4.48-3.84 8.32-8.32 8.32h-2.56z m-176 0c-4.48 0-8.32-3.84-8.32-8.32 0-4.48 3.84-8.32 8.32-8.32h2.56c4.48 0 8.32 3.84 8.32 8.32 0 4.48-3.84 8.32-8.32 8.32H275.2z m-29.44 0c-4.48 0-8.32-3.84-8.32-8.32 0-4.48 3.84-8.32 8.32-8.32h2.56c4.48 0 8.32 3.84 8.32 8.32 0 4.48-3.84 8.32-8.32 8.32h-2.56zM802.56 332.16c-4.48 0-8.32-3.84-8.32-8.32s3.84-8.32 8.32-8.32h2.56c4.48 0 8.32 3.84 8.32 8.32s-3.84 8.32-8.32 8.32h-2.56z m-29.44 0c-4.48 0-8.32-3.84-8.32-8.32s3.84-8.32 8.32-8.32h2.56c4.48 0 8.32 3.84 8.32 8.32s-3.84 8.32-8.32 8.32h-2.56z m-87.68 0c-4.48 0-8.32-3.84-8.32-8.32s3.84-8.32 8.32-8.32h2.56c4.48 0 8.32 3.84 8.32 8.32s-3.84 8.32-8.32 8.32h-2.56z m-29.44 0c-4.48 0-8.32-3.84-8.32-8.32s3.84-8.32 8.32-8.32h2.56c4.48 0 8.32 3.84 8.32 8.32s-3.84 8.32-8.32 8.32h-2.56z m-87.68 0c-4.48 0-8.32-3.84-8.32-8.32s3.84-8.32 8.32-8.32h2.56c4.48 0 8.32 3.84 8.32 8.32s-3.84 8.32-8.32 8.32h-2.56z m-29.44 0c-4.48 0-8.32-3.84-8.32-8.32s3.84-8.32 8.32-8.32h2.56c4.48 0 8.32 3.84 8.32 8.32s-3.84 8.32-8.32 8.32h-2.56z m-29.44 0c-4.48 0-8.32-3.84-8.32-8.32s3.84-8.32 8.32-8.32h2.56c4.48 0 8.32 3.84 8.32 8.32s-3.84 8.32-8.32 8.32h-2.56z m-28.8 0c-4.48 0-8.32-3.84-8.32-8.32s3.84-8.32 8.32-8.32h2.56c4.48 0 8.32 3.84 8.32 8.32s-3.84 8.32-8.32 8.32h-2.56z m-29.44 0c-4.48 0-8.32-3.84-8.32-8.32s3.84-8.32 8.32-8.32h2.56c4.48 0 8.32 3.84 8.32 8.32s-3.84 8.32-8.32 8.32h-2.56z m-176 0c-4.48 0-8.32-3.84-8.32-8.32s3.84-8.32 8.32-8.32h2.56c4.48 0 8.32 3.84 8.32 8.32s-3.84 8.32-8.32 8.32H275.2z m-29.44 0c-4.48 0-8.32-3.84-8.32-8.32s3.84-8.32 8.32-8.32h2.56c4.48 0 8.32 3.84 8.32 8.32s-3.84 8.32-8.32 8.32h-2.56zM802.56 294.4c-4.48 0-8.32-3.84-8.32-8.32s3.84-8.32 8.32-8.32h2.56c4.48 0 8.32 3.84 8.32 8.32s-3.84 8.32-8.32 8.32h-2.56z m-29.44 0c-4.48 0-8.32-3.84-8.32-8.32s3.84-8.32 8.32-8.32h2.56c4.48 0 8.32 3.84 8.32 8.32s-3.2 8.32-7.68 8.32h-3.2z m-87.68 0c-4.48 0-8.32-3.84-8.32-8.32s3.84-8.32 8.32-8.32h2.56c4.48 0 8.32 3.84 8.32 8.32s-3.84 8.32-8.32 8.32h-2.56z m-29.44 0c-4.48 0-8.32-3.84-8.32-8.32s3.84-8.32 8.32-8.32h2.56c4.48 0 8.32 3.84 8.32 8.32s-3.84 8.32-8.32 8.32h-2.56z m-175.36 0c-4.48 0-8.32-3.84-8.32-8.32s3.84-8.32 8.32-8.32h2.56c4.48 0 8.32 3.84 8.32 8.32s-3.84 8.32-8.32 8.32h-2.56z m-29.44 0c-4.48 0-8.32-3.84-8.32-8.32s3.84-8.32 8.32-8.32h2.56c4.48 0 8.32 3.84 8.32 8.32s-3.84 8.32-8.32 8.32h-2.56zM275.2 294.4c-4.48 0-8.32-3.84-8.32-8.32s3.84-8.32 8.32-8.32h2.56c4.48 0 8.32 3.84 8.32 8.32s-3.84 8.32-8.32 8.32H275.2z m-29.44 0c-4.48 0-8.32-3.84-8.32-8.32s3.84-8.32 8.32-8.32h2.56c4.48 0 8.32 3.84 8.32 8.32s-3.84 8.32-8.32 8.32h-2.56zM802.56 407.04c-4.48 0-8.32-3.84-8.32-8.32 0-4.48 3.84-8.32 8.32-8.32h2.56c4.48 0 8.32 3.84 8.32 8.32 0 4.48-3.84 8.32-8.32 8.32h-2.56z m-29.44 0c-4.48 0-8.32-3.84-8.32-8.32 0-4.48 3.84-8.32 8.32-8.32h2.56c4.48 0 8.32 3.84 8.32 8.32 0 4.48-3.84 8.32-8.32 8.32h-2.56z m-87.68 0c-4.48 0-8.32-3.84-8.32-8.32 0-4.48 3.84-8.32 8.32-8.32h2.56c4.48 0 8.32 3.84 8.32 8.32 0 4.48-3.84 8.32-8.32 8.32h-2.56z m-29.44 0c-4.48 0-8.32-3.84-8.32-8.32 0-4.48 3.84-8.32 8.32-8.32h2.56c4.48 0 8.32 3.84 8.32 8.32 0 4.48-3.84 8.32-8.32 8.32h-2.56z m-175.36 0c-4.48 0-8.32-3.84-8.32-8.32 0-4.48 3.84-8.32 8.32-8.32h2.56c4.48 0 8.32 3.84 8.32 8.32 0 4.48-3.84 8.32-8.32 8.32h-2.56z m-29.44 0c-4.48 0-8.32-3.84-8.32-8.32 0-4.48 3.84-8.32 8.32-8.32h2.56c4.48 0 8.32 3.84 8.32 8.32 0 4.48-3.84 8.32-8.32 8.32h-2.56z m-58.88 0c-4.48 0-8.32-3.84-8.32-8.32 0-4.48 3.84-8.32 8.32-8.32h2.56c4.48 0 8.32 3.84 8.32 8.32 0 4.48-3.84 8.32-8.32 8.32h-2.56z m-29.44 0c-4.48 0-8.32-3.84-8.32-8.32 0-4.48 3.84-8.32 8.32-8.32h2.56c4.48 0 8.32 3.84 8.32 8.32 0 4.48-3.84 8.32-8.32 8.32h-2.56z m-87.68 0c-4.48 0-8.32-3.84-8.32-8.32 0-4.48 3.84-8.32 8.32-8.32h2.56c4.48 0 8.32 3.84 8.32 8.32 0 4.48-3.84 8.32-8.32 8.32H275.2z m-29.44 0c-4.48 0-8.32-3.84-8.32-8.32 0-4.48 3.84-8.32 8.32-8.32h2.56c4.48 0 8.32 3.84 8.32 8.32 0 4.48-3.84 8.32-8.32 8.32h-2.56zM802.56 369.28c-4.48 0-8.32-3.84-8.32-8.32 0-4.48 3.84-8.32 8.32-8.32h2.56c4.48 0 8.32 3.84 8.32 8.32 0 4.48-3.84 8.32-8.32 8.32h-2.56z m-29.44 0c-4.48 0-8.32-3.84-8.32-8.32 0-4.48 3.84-8.32 8.32-8.32h2.56c4.48 0 8.32 3.84 8.32 8.32 0 4.48-3.84 8.32-8.32 8.32h-2.56z m-87.68 0c-4.48 0-8.32-3.84-8.32-8.32 0-4.48 3.84-8.32 8.32-8.32h2.56c4.48 0 8.32 3.84 8.32 8.32 0 4.48-3.84 8.32-8.32 8.32h-2.56z m-29.44 0c-4.48 0-8.32-3.84-8.32-8.32 0-4.48 3.84-8.32 8.32-8.32h2.56c4.48 0 8.32 3.84 8.32 8.32 0 4.48-3.84 8.32-8.32 8.32h-2.56z m-175.36 0c-4.48 0-8.32-3.84-8.32-8.32 0-4.48 3.84-8.32 8.32-8.32h2.56c4.48 0 8.32 3.84 8.32 8.32 0 4.48-3.84 8.32-8.32 8.32h-2.56z m-29.44 0c-4.48 0-8.32-3.84-8.32-8.32 0-4.48 3.84-8.32 8.32-8.32h2.56c4.48 0 8.32 3.84 8.32 8.32 0 4.48-3.84 8.32-8.32 8.32h-2.56z m-176 0c-4.48 0-8.32-3.84-8.32-8.32 0-4.48 3.84-8.32 8.32-8.32h2.56c4.48 0 8.32 3.84 8.32 8.32 0 4.48-3.84 8.32-8.32 8.32H275.2z m-29.44 0c-4.48 0-8.32-3.84-8.32-8.32 0-4.48 3.84-8.32 8.32-8.32h2.56c4.48 0 8.32 3.84 8.32 8.32 0 4.48-3.84 8.32-8.32 8.32h-2.56zM773.12 444.8c-4.48 0-8.32-3.84-8.32-8.32s3.84-8.32 8.32-8.32h2.56c4.48 0 8.32 3.84 8.32 8.32s-3.84 8.32-8.32 8.32h-2.56z m-28.8 0c-4.48 0-8.32-3.84-8.32-8.32s3.84-8.32 8.32-8.32h2.56c4.48 0 8.32 3.84 8.32 8.32s-3.84 8.32-8.32 8.32h-2.56z m-29.44 0c-4.48 0-8.32-3.84-8.32-8.32s3.84-8.32 8.32-8.32h2.56c4.48 0 8.32 3.84 8.32 8.32s-3.84 8.32-8.32 8.32h-2.56z m-29.44 0c-4.48 0-8.32-3.84-8.32-8.32s3.84-8.32 8.32-8.32h2.56c4.48 0 8.32 3.84 8.32 8.32s-3.84 8.32-8.32 8.32h-2.56z m-29.44 0c-4.48 0-8.32-3.84-8.32-8.32s3.84-8.32 8.32-8.32h2.56c4.48 0 8.32 3.84 8.32 8.32s-3.84 8.32-8.32 8.32h-2.56z m-58.24 0c-4.48 0-8.32-3.84-8.32-8.32s3.84-8.32 8.32-8.32h2.56c4.48 0 8.32 3.84 8.32 8.32s-3.84 8.32-8.32 8.32h-2.56z m-29.44 0c-4.48 0-8.32-3.84-8.32-8.32s3.84-8.32 8.32-8.32h2.56c4.48 0 8.32 3.84 8.32 8.32s-3.84 8.32-8.32 8.32h-2.56z m-29.44 0c-4.48 0-8.32-3.84-8.32-8.32s3.84-8.32 8.32-8.32h2.56c4.48 0 8.32 3.84 8.32 8.32s-3.84 8.32-8.32 8.32h-2.56z m-29.44 0c-4.48 0-8.32-3.84-8.32-8.32s3.84-8.32 8.32-8.32h2.56c4.48 0 8.32 3.84 8.32 8.32s-3.84 8.32-8.32 8.32h-2.56z m-28.8 0c-4.48 0-8.32-3.84-8.32-8.32s3.84-8.32 8.32-8.32h2.56c4.48 0 8.32 3.84 8.32 8.32s-3.84 8.32-8.32 8.32h-2.56z m-29.44 0c-4.48 0-8.32-3.84-8.32-8.32s3.84-8.32 8.32-8.32h2.56c4.48 0 8.32 3.84 8.32 8.32s-3.84 8.32-8.32 8.32h-2.56z m-58.88 0c-4.48 0-8.32-3.84-8.32-8.32s3.84-8.32 8.32-8.32h2.56c4.48 0 8.32 3.84 8.32 8.32s-3.84 8.32-8.32 8.32h-2.56z m-29.44 0c-4.48 0-8.32-3.84-8.32-8.32s3.84-8.32 8.32-8.32h2.56c4.48 0 8.32 3.84 8.32 8.32s-3.84 8.32-8.32 8.32h-2.56z m-28.8 0c-4.48 0-8.32-3.84-8.32-8.32s3.84-8.32 8.32-8.32h2.56c4.48 0 8.32 3.84 8.32 8.32s-3.84 8.32-8.32 8.32h-2.56z m-29.44 0c-4.48 0-8.32-3.84-8.32-8.32s3.84-8.32 8.32-8.32h2.56c4.48 0 8.32 3.84 8.32 8.32s-3.84 8.32-8.32 8.32h-2.56z m-29.44 0c-4.48 0-8.32-3.84-8.32-8.32s3.84-8.32 8.32-8.32h2.56c4.48 0 8.32 3.84 8.32 8.32s-3.84 8.32-8.32 8.32H275.2z m-29.44 0c-4.48 0-8.32-3.84-8.32-8.32s3.84-8.32 8.32-8.32h2.56c4.48 0 8.32 3.84 8.32 8.32s-3.84 8.32-8.32 8.32h-2.56z" fill="#ffffff" p-id="2759"></path><path d="M904.32 470.4h-1.28c-4.48 0-7.68-3.2-7.68-7.68s3.2-7.68 7.68-7.68h1.28c4.48 0 7.68 3.2 7.68 7.68s-3.2 7.68-7.68 7.68zM304.64 964.48h-37.76c-4.48 0-7.68-3.2-7.68-7.68v-69.12c0-4.48 3.2-7.68 7.68-7.68s7.68 3.2 7.68 7.68v62.08h22.4v-62.08c0-4.48 3.2-7.68 7.68-7.68s7.68 3.2 7.68 7.68v69.12c0 4.48-3.84 7.68-7.68 7.68zM799.36 964.48h-25.6c-4.48 0-7.68-3.2-7.68-7.68v-47.36c0-4.48 3.2-7.68 7.68-7.68s7.68 3.2 7.68 7.68v39.68h10.88v-39.68c0-4.48 3.2-7.68 7.68-7.68s7.68 3.2 7.68 7.68v47.36c-0.64 4.48-3.84 7.68-8.32 7.68z" fill="#ffffff" p-id="2760"></path><path d="M285.44 898.56c-22.4 0-42.88-11.52-54.4-30.08H230.4c-34.56 0-62.72-28.16-62.72-62.72 0-32 23.04-58.24 54.4-62.08 3.2-32 30.72-57.6 64-57.6s60.8 24.96 64 57.6c30.72 4.48 54.4 30.08 54.4 62.08 0 34.56-28.16 62.72-62.72 62.72h-0.64c-12.8 18.56-33.28 30.08-55.68 30.08z m-49.92-45.44c2.56 0 5.12 1.28 6.4 3.84 8.32 16 24.96 26.24 43.52 26.24s35.2-10.24 43.52-26.24c1.28-2.56 4.48-4.48 7.68-3.84h4.48c26.24 0 48-21.12 48-48 0-26.24-20.48-46.72-46.72-48-3.84 0-7.68-3.2-7.68-7.68v-0.64c0-26.88-22.4-48.64-49.28-48.64s-49.28 21.76-49.28 49.28c0 3.84-3.2 7.68-7.68 7.68-26.24 0.64-46.72 21.76-46.72 48s21.12 48 48 48H235.52zM786.56 919.68c-15.36 0-30.08-7.68-38.4-20.48-24.96-0.64-44.8-20.48-44.8-45.44 0-22.4 16-40.96 37.12-44.8 3.2-22.4 22.4-39.68 46.08-39.68 23.04 0 42.88 17.28 46.08 39.68 21.12 3.84 37.12 22.4 37.12 44.8 0 24.96-19.84 44.8-44.8 45.44-8.32 12.16-23.04 20.48-38.4 20.48z m-34.56-36.48c2.56 0 5.12 1.28 6.4 3.84 5.12 10.24 16 16.64 27.52 16.64 11.52 0 22.4-6.4 27.52-16.64 1.28-2.56 4.48-4.48 7.68-3.84h2.56c16.64 0 30.08-13.44 30.08-30.08s-12.8-29.44-29.44-30.08c-3.84 0-7.68-3.2-7.68-7.68 0-17.28-14.08-31.36-31.36-31.36s-31.36 14.08-31.36 31.36c0 3.84-3.2 7.68-7.68 7.68-16.64 0.64-29.44 13.44-29.44 30.08s13.44 30.08 30.08 30.08h5.12z" fill="#ffffff" p-id="2761"></path></svg>
